<svg xmlns="http://www.w3.org/2000/svg" viewBox="0 0 16.933 16.933" id="Delivery"><path d="M7.577 0a.956.956 0 0 0-.963.95v7.626c0 .53.437.949.963.949h8.394c.526 0 .962-.42.962-.95V.95c0-.524-.43-.949-.962-.949zm0 .53h3.006v2.91c0 .196.208.324.383.236l.94-.469.94.469a.265.265 0 0 0 .382-.236V.53h2.743c.237 0 .433.186.433.42v7.626c0 .225-.185.42-.433.42H7.577a.425.425 0 0 1-.433-.42V.949c0-.233.192-.42.433-.42zm3.536 0h1.586v2.482l-.674-.338a.264.264 0 0 0-.239 0l-.673.338zM4.497 2.116c-.351 0-.355.53 0 .53h.795c.353 0 .353-.53 0-.53zM.265 3.175c-.353 0-.353.527 0 .527h3.16c.355 0 .363-.527 0-.527zm1.573 1.586c-.345 0-.345.53 0 .53h2.38c.346 0 .346-.53 0-.53zm11.126 2.384v.793c0 .353.53.353.53 0v-.793c0-.354-.53-.354-.53 0zm1.058 0v.793c0 .353.53.353.53 0v-.793c0-.354-.53-.354-.53 0zm1.06 0v.793c0 .36.528.36.528 0v-.793c0-.354-.529-.354-.529 0zM.778 6.348c-.353 0-.353.53 0 .53h2.647c.353 0 .353-.53 0-.53zm5.026 4.236c-.41 0-1.143.277-1.724.554a17.47 17.47 0 0 0-.744.377.797.797 0 0 0-.689-.402H1.06a.794.794 0 0 0-.795.795v3.703c0 .435.352.795.795.795h1.588a.793.793 0 0 0 .793-.795v-.046c.516-.083 1.008-.196 1.588-.218.327 0 .938.464 1.336.745.566.4 1.176.841 1.837.841.2 0 .4-.065.663-.163 1.447-.542 4.5-2.269 6.279-3.31a.922.922 0 0 0 .343-1.265c-.243-.422-.739-.525-1.22-.361l-3.703 1.282a1.053 1.053 0 0 0-.5-.67c-1.035-.556-2.108-1.126-3.166-1.557-.333-.127-.736-.298-1.093-.305zm-.017.529c.257.004.65.16.912.266 1.085.46 2.035.947 3.098 1.525a.529.529 0 1 1-.53.916l-1.603-.926c-.314-.212-.605.292-.263.458l1.603.925a1.061 1.061 0 0 0 1.538-.593l3.898-1.35c.68-.232.804.474.447.664-2.07 1.193-4.763 2.723-6.209 3.275-.24.09-.435.133-.477.133-.397 0-.975-.352-1.533-.746-.379-.255-1.062-.832-1.64-.842-.428.001-1.125.125-1.588.21v-2.965s.442-.245.867-.446c.549-.26 1.133-.483 1.48-.504zm-4.728.53h1.588c.151 0 .264.122.264.265v3.703a.266.266 0 0 1-.264.266H1.06a.266.266 0 0 1-.266-.266v-3.703c0-.148.117-.266.266-.266zm.529 3.175a.265.265 0 1 0 0 .529.265.265 0 0 0 0-.53z" color="#000" font-family="sans-serif" font-weight="400" overflow="visible" style="line-height:normal;font-variant-ligatures:normal;font-variant-position:normal;font-variant-caps:normal;font-variant-numeric:normal;font-variant-alternates:normal;font-feature-settings:normal;text-indent:0;text-align:start;text-decoration-line:none;text-decoration-style:solid;text-decoration-color:#000;text-transform:none;text-orientation:mixed;shape-padding:0;isolation:auto;mix-blend-mode:normal" fill="#373939" class="color000000 svgShape"></path></svg>