<svg width="28" height="28" viewBox="0 0 28 28" fill="none" xmlns="http://www.w3.org/2000/svg">
<rect width="28" height="28" rx="8" fill="#F5F5FF"/>
<path d="M19.8335 9.83333L19.1107 19.9521C19.0484 20.8243 18.3227 21.5 17.4483 21.5H10.552C9.67763 21.5 8.9519 20.8243 8.8896 19.9521L8.16683 9.83333H11.5002V7.33333C11.5002 6.8731 11.8733 6.5 12.3335 6.5H15.6668C16.1271 6.5 16.5002 6.8731 16.5002 7.33333V9.83333H19.8335Z" fill="white"/>
<path d="M19.8335 9.83333L19.1107 19.9521C19.0484 20.8243 18.3227 21.5 17.4483 21.5H10.552C9.67763 21.5 8.9519 20.8243 8.8896 19.9521L8.16683 9.83333M12.3335 13.1667V18.1667M15.6668 13.1667V18.1667M16.5002 9.83333V7.33333C16.5002 6.8731 16.1271 6.5 15.6668 6.5H12.3335C11.8733 6.5 11.5002 6.8731 11.5002 7.33333V9.83333M7.3335 9.83333H20.6668" stroke="#101010" stroke-width="1.5" stroke-linecap="round" stroke-linejoin="round"/>
</svg>
