<svg width="98" height="56" viewBox="0 0 98 56" fill="none" xmlns="http://www.w3.org/2000/svg">
<rect width="98" height="56" rx="28" fill="#F09B00"/>
<path d="M49.9192 17.9808C49.4115 17.4731 48.5884 17.4731 48.0807 17.9808L38.9807 27.0808C38.4731 27.5884 38.4731 28.4116 38.9807 28.9192C39.4884 29.4269 40.3115 29.4269 40.8192 28.9192L41.2 28.5385V37.1C41.2 37.818 41.782 38.4 42.5 38.4H45.1C45.8179 38.4 46.4 37.818 46.4 37.1V34.5C46.4 33.782 46.982 33.2 47.7 33.2H50.3C51.0179 33.2 51.6 33.782 51.6 34.5V37.1C51.6 37.818 52.182 38.4 52.9 38.4H55.5C56.2179 38.4 56.8 37.818 56.8 37.1V28.5385L57.1807 28.9192C57.6884 29.4269 58.5115 29.4269 59.0192 28.9192C59.5269 28.4116 59.5269 27.5884 59.0192 27.0808L49.9192 17.9808Z" fill="white"/>
</svg>
