<svg width="42" height="42" viewBox="0 0 42 42" fill="none" xmlns="http://www.w3.org/2000/svg">
<rect width="42" height="42" rx="16" fill="white"/>
<path d="M21.0001 10.6C16.6922 10.6 13.2001 14.0922 13.2001 18.4V23.0615L12.2808 23.9808C11.909 24.3526 11.7978 24.9117 11.999 25.3975C12.2002 25.8833 12.6743 26.2 13.2001 26.2H28.8001C29.3259 26.2 29.7999 25.8833 30.0011 25.3975C30.2023 24.9117 30.0911 24.3526 29.7193 23.9808L28.8001 23.0615V18.4C28.8001 14.0922 25.3079 10.6 21.0001 10.6Z" fill="#F09B00"/>
<path d="M21 31.4C18.8461 31.4 17.1 29.6539 17.1 27.5H24.9C24.9 29.6539 23.1539 31.4 21 31.4Z" fill="#F09B00"/>
</svg>
